<mxfile host="app.diagrams.net" modified="2021-05-31T09:32:32.512Z" agent="5.0 (Windows NT 10.0; Win64; x64) AppleWebKit/537.36 (KHTML, like Gecko) Chrome/90.0.4430.212 Safari/537.36" etag="rpXxfHsZsaRnF09TGZMq" version="14.7.3" type="github">
  <diagram id="C5RBs43oDa-KdzZeNtuy" name="Page-1">
    <mxGraphModel dx="1865" dy="580" grid="1" gridSize="10" guides="1" tooltips="1" connect="1" arrows="1" fold="1" page="1" pageScale="1" pageWidth="827" pageHeight="1169" math="0" shadow="0">
      <root>
        <mxCell id="WIyWlLk6GJQsqaUBKTNV-0" />
        <mxCell id="WIyWlLk6GJQsqaUBKTNV-1" parent="WIyWlLk6GJQsqaUBKTNV-0" />
        <mxCell id="WIyWlLk6GJQsqaUBKTNV-2" value="" style="rounded=0;html=1;jettySize=auto;orthogonalLoop=1;fontSize=11;endArrow=block;endFill=0;endSize=8;strokeWidth=1;shadow=0;labelBackgroundColor=none;edgeStyle=orthogonalEdgeStyle;" parent="WIyWlLk6GJQsqaUBKTNV-1" source="WIyWlLk6GJQsqaUBKTNV-3" target="WIyWlLk6GJQsqaUBKTNV-6" edge="1">
          <mxGeometry relative="1" as="geometry" />
        </mxCell>
        <mxCell id="WIyWlLk6GJQsqaUBKTNV-3" value="Is it a Leap year ??" style="rounded=1;whiteSpace=wrap;html=1;fontSize=12;glass=0;strokeWidth=1;shadow=0;" parent="WIyWlLk6GJQsqaUBKTNV-1" vertex="1">
          <mxGeometry x="160" y="80" width="120" height="14" as="geometry" />
        </mxCell>
        <mxCell id="qqvwOF2V1yD7I3rxsBCJ-1" value="" style="edgeStyle=orthogonalEdgeStyle;rounded=0;orthogonalLoop=1;jettySize=auto;html=1;entryX=0.571;entryY=-0.055;entryDx=0;entryDy=0;entryPerimeter=0;" edge="1" parent="WIyWlLk6GJQsqaUBKTNV-1" source="WIyWlLk6GJQsqaUBKTNV-6" target="qqvwOF2V1yD7I3rxsBCJ-2">
          <mxGeometry relative="1" as="geometry">
            <mxPoint x="100" y="210" as="targetPoint" />
          </mxGeometry>
        </mxCell>
        <mxCell id="qqvwOF2V1yD7I3rxsBCJ-3" value="" style="edgeStyle=orthogonalEdgeStyle;rounded=0;orthogonalLoop=1;jettySize=auto;html=1;" edge="1" parent="WIyWlLk6GJQsqaUBKTNV-1" source="WIyWlLk6GJQsqaUBKTNV-6" target="qqvwOF2V1yD7I3rxsBCJ-6">
          <mxGeometry relative="1" as="geometry">
            <mxPoint x="474" y="260" as="targetPoint" />
          </mxGeometry>
        </mxCell>
        <mxCell id="WIyWlLk6GJQsqaUBKTNV-6" value="Year divisible by 4 ?" style="rhombus;whiteSpace=wrap;html=1;shadow=0;fontFamily=Helvetica;fontSize=12;align=center;strokeWidth=1;spacing=6;spacingTop=-4;" parent="WIyWlLk6GJQsqaUBKTNV-1" vertex="1">
          <mxGeometry x="170" y="170" width="100" height="29" as="geometry" />
        </mxCell>
        <mxCell id="qqvwOF2V1yD7I3rxsBCJ-5" value="" style="edgeStyle=orthogonalEdgeStyle;rounded=0;orthogonalLoop=1;jettySize=auto;html=1;exitX=0;exitY=0.5;exitDx=0;exitDy=0;entryX=0.5;entryY=0;entryDx=0;entryDy=0;" edge="1" parent="WIyWlLk6GJQsqaUBKTNV-1" source="qqvwOF2V1yD7I3rxsBCJ-6" target="qqvwOF2V1yD7I3rxsBCJ-9">
          <mxGeometry relative="1" as="geometry">
            <mxPoint x="304" y="340" as="sourcePoint" />
            <mxPoint x="270" y="360" as="targetPoint" />
          </mxGeometry>
        </mxCell>
        <mxCell id="WIyWlLk6GJQsqaUBKTNV-8" value="No" style="rounded=0;html=1;jettySize=auto;orthogonalLoop=1;fontSize=11;endArrow=block;endFill=0;endSize=8;strokeWidth=1;shadow=0;labelBackgroundColor=none;edgeStyle=orthogonalEdgeStyle;" parent="WIyWlLk6GJQsqaUBKTNV-1" target="WIyWlLk6GJQsqaUBKTNV-11" edge="1">
          <mxGeometry x="0.3333" y="20" relative="1" as="geometry">
            <mxPoint as="offset" />
            <mxPoint x="220" y="370" as="sourcePoint" />
          </mxGeometry>
        </mxCell>
        <mxCell id="WIyWlLk6GJQsqaUBKTNV-9" value="Yes" style="edgeStyle=orthogonalEdgeStyle;rounded=0;html=1;jettySize=auto;orthogonalLoop=1;fontSize=11;endArrow=block;endFill=0;endSize=8;strokeWidth=1;shadow=0;labelBackgroundColor=none;" parent="WIyWlLk6GJQsqaUBKTNV-1" target="WIyWlLk6GJQsqaUBKTNV-12" edge="1">
          <mxGeometry y="10" relative="1" as="geometry">
            <mxPoint as="offset" />
            <mxPoint x="270" y="330" as="sourcePoint" />
          </mxGeometry>
        </mxCell>
        <mxCell id="qqvwOF2V1yD7I3rxsBCJ-2" value="Not a Leap year" style="rounded=1;whiteSpace=wrap;html=1;fillColor=#FF9999;" vertex="1" parent="WIyWlLk6GJQsqaUBKTNV-1">
          <mxGeometry x="-50" y="270" width="110" height="14" as="geometry" />
        </mxCell>
        <mxCell id="qqvwOF2V1yD7I3rxsBCJ-13" value="" style="edgeStyle=orthogonalEdgeStyle;rounded=0;orthogonalLoop=1;jettySize=auto;html=1;" edge="1" parent="WIyWlLk6GJQsqaUBKTNV-1" source="qqvwOF2V1yD7I3rxsBCJ-6" target="qqvwOF2V1yD7I3rxsBCJ-12">
          <mxGeometry relative="1" as="geometry">
            <Array as="points">
              <mxPoint x="580" y="300" />
            </Array>
          </mxGeometry>
        </mxCell>
        <mxCell id="qqvwOF2V1yD7I3rxsBCJ-6" value="Divisible by 100 ?" style="rhombus;whiteSpace=wrap;html=1;" vertex="1" parent="WIyWlLk6GJQsqaUBKTNV-1">
          <mxGeometry x="390" y="260" width="80" height="29" as="geometry" />
        </mxCell>
        <mxCell id="qqvwOF2V1yD7I3rxsBCJ-9" value="It is a Leap Year" style="rounded=1;whiteSpace=wrap;html=1;fillColor=#99FFCC;" vertex="1" parent="WIyWlLk6GJQsqaUBKTNV-1">
          <mxGeometry x="240" y="330" width="120" height="14" as="geometry" />
        </mxCell>
        <mxCell id="qqvwOF2V1yD7I3rxsBCJ-18" style="edgeStyle=orthogonalEdgeStyle;rounded=0;orthogonalLoop=1;jettySize=auto;html=1;entryX=0.5;entryY=0;entryDx=0;entryDy=0;" edge="1" parent="WIyWlLk6GJQsqaUBKTNV-1" source="qqvwOF2V1yD7I3rxsBCJ-12" target="qqvwOF2V1yD7I3rxsBCJ-16">
          <mxGeometry relative="1" as="geometry" />
        </mxCell>
        <mxCell id="qqvwOF2V1yD7I3rxsBCJ-20" style="edgeStyle=orthogonalEdgeStyle;rounded=0;orthogonalLoop=1;jettySize=auto;html=1;entryX=0.5;entryY=0;entryDx=0;entryDy=0;" edge="1" parent="WIyWlLk6GJQsqaUBKTNV-1" source="qqvwOF2V1yD7I3rxsBCJ-12" target="qqvwOF2V1yD7I3rxsBCJ-19">
          <mxGeometry relative="1" as="geometry" />
        </mxCell>
        <mxCell id="qqvwOF2V1yD7I3rxsBCJ-12" value="Divisible by 400 ?" style="rhombus;whiteSpace=wrap;html=1;" vertex="1" parent="WIyWlLk6GJQsqaUBKTNV-1">
          <mxGeometry x="540" y="330" width="80" height="29" as="geometry" />
        </mxCell>
        <mxCell id="qqvwOF2V1yD7I3rxsBCJ-16" value="Not a Leap year" style="rounded=1;whiteSpace=wrap;html=1;fillColor=#FF9999;" vertex="1" parent="WIyWlLk6GJQsqaUBKTNV-1">
          <mxGeometry x="414" y="420" width="120" height="14" as="geometry" />
        </mxCell>
        <mxCell id="qqvwOF2V1yD7I3rxsBCJ-19" value="It is a Leap Year" style="rounded=1;whiteSpace=wrap;html=1;fillColor=#99FFCC;" vertex="1" parent="WIyWlLk6GJQsqaUBKTNV-1">
          <mxGeometry x="640" y="420" width="120" height="14" as="geometry" />
        </mxCell>
        <mxCell id="qqvwOF2V1yD7I3rxsBCJ-21" value="No" style="text;html=1;resizable=0;autosize=1;align=center;verticalAlign=middle;points=[];fillColor=none;strokeColor=none;rounded=0;" vertex="1" parent="WIyWlLk6GJQsqaUBKTNV-1">
          <mxGeometry x="85" y="190" width="30" height="20" as="geometry" />
        </mxCell>
        <mxCell id="qqvwOF2V1yD7I3rxsBCJ-22" value="Yes" style="text;html=1;resizable=0;autosize=1;align=center;verticalAlign=middle;points=[];fillColor=none;strokeColor=none;rounded=0;" vertex="1" parent="WIyWlLk6GJQsqaUBKTNV-1">
          <mxGeometry x="340" y="190" width="30" height="20" as="geometry" />
        </mxCell>
        <mxCell id="qqvwOF2V1yD7I3rxsBCJ-23" value="No" style="text;html=1;resizable=0;autosize=1;align=center;verticalAlign=middle;points=[];fillColor=none;strokeColor=none;rounded=0;" vertex="1" parent="WIyWlLk6GJQsqaUBKTNV-1">
          <mxGeometry x="340" y="280" width="30" height="20" as="geometry" />
        </mxCell>
        <mxCell id="qqvwOF2V1yD7I3rxsBCJ-24" value="Yes" style="text;html=1;resizable=0;autosize=1;align=center;verticalAlign=middle;points=[];fillColor=none;strokeColor=none;rounded=0;" vertex="1" parent="WIyWlLk6GJQsqaUBKTNV-1">
          <mxGeometry x="510" y="280" width="30" height="20" as="geometry" />
        </mxCell>
        <mxCell id="qqvwOF2V1yD7I3rxsBCJ-25" value="Yes" style="text;html=1;resizable=0;autosize=1;align=center;verticalAlign=middle;points=[];fillColor=none;strokeColor=none;rounded=0;" vertex="1" parent="WIyWlLk6GJQsqaUBKTNV-1">
          <mxGeometry x="640" y="350" width="30" height="20" as="geometry" />
        </mxCell>
        <mxCell id="qqvwOF2V1yD7I3rxsBCJ-26" value="No" style="text;html=1;resizable=0;autosize=1;align=center;verticalAlign=middle;points=[];fillColor=none;strokeColor=none;rounded=0;" vertex="1" parent="WIyWlLk6GJQsqaUBKTNV-1">
          <mxGeometry x="500" y="350" width="30" height="20" as="geometry" />
        </mxCell>
      </root>
    </mxGraphModel>
  </diagram>
</mxfile>
